#File written by RizomUV 2020.1.111.g89b05bd. Compilation :Jan  6 2021,08:31:11
mtllib 001_sceen_wall:exported:mtl
#begin vertices
v 1.465865 7.415214 -4.817976
v 1.465865 -7.415214 -4.817976
v 1.465865 7.415214 4.817976
v 1.465865 -7.415214 4.817976
v -1.465865 7.415214 -4.817976
v -1.465865 -7.415214 -4.817976
v -1.465865 7.415214 4.817976
v -1.465865 -7.415214 4.817976
#end vertices

#begin 24 textures vertices 
vt 0.1159705 0.946232 0
vt 0.2378337 0.5779015 0
vt 0.1159705 0.5779015 0
vt 0.7621663 0.5707937 0
vt 0.00390625 0.946232 0
vt 0.00390625 0.00390625 0
vt 0.00390625 0.5779015 0
vt 0.8742305 0.5707937 0
vt 0.7621663 0.00390625 0
vt 0.3830363 0.5707937 0
vt 0.7513668 0.5707937 0
vt 0.9960938 0.00390625 0
vt 0.8840295 0.00390625 0
vt 0.00390625 0.5707937 0
vt 0.3722368 0.5707937 0
vt 0.8742305 0.00390625 0
vt 0.3722368 0.00390625 0
vt 0.1257695 0.946232 0
vt 0.2378337 0.946232 0
vt 0.3830363 0.00390625 0
vt 0.9960938 0.5707937 0
vt 0.7513668 0.00390625 0
vt 0.1257695 0.5779015 0
vt 0.8840295 0.5707937 0
#end 24 textures vertices 

#begin 6 normals 
vn -0 1 -0
vn -0 -0 1
vn -1 -0 -0
vn -0 -1 -0
vn 1 -0 -0
vn -0 -0 -1
#end 6 normals 

#begin 6 faces
o Life_Cube
usemtl Material
s 0
f 1/1/1 5/5/1 7/7/1 3/3/1 
f 4/4/2 3/9/2 7/16/2 8/8/2 
f 8/17/3 7/15/3 5/14/3 6/6/3 
f 6/23/4 2/2/4 4/19/4 8/18/4 
f 2/22/5 1/11/5 3/10/5 4/20/5 
f 6/24/6 5/13/6 1/12/6 2/21/6 
#end 6 faces

#ZOMPROPERTIES_03 {
#ZOMPROPERTIES_03 table {Mesh table {SymPlane table {Point vector3d 0 0 0 Normal vector3d 1 0 0 Threshold double 0.01 
#ZOMPROPERTIES_03 Enabled bool false EdgeID int -1 SymEdgeID int -1 UPos double 0.5 LocalMode bool false } RootGroup C
#ZOMPROPERTIES_03 SubMeshGroup {Children table {Tile_0_0 CSubMeshGroup {Children table {} BBoxUV box3d 0 0 0 0 0 0 BBo
#ZOMPROPERTIES_03 x3D box3d 0 0 0 0 0 0 AreaUV double 0 VisibleAreaUV double 0.627213 Area3D double 0 IsRoot bool fals
#ZOMPROPERTIES_03 e TopoStable table {Selected bool false Box box3d 0 1 0 1 0 1 U int 0 V int 0 NU int 0 NV int 0 Tili
#ZOMPROPERTIES_03 ng vector3d 1 1 1 TileRatioMode string "1:1" } IsTile bool true PolyIDs ints { 2 0 1 3 4 5 } } } BBo
#ZOMPROPERTIES_03 xUV box3d 0 0 0 0 0 0 BBox3D box3d 0 0 0 0 0 0 AreaUV double 0 VisibleAreaUV double 0 Area3D double 
#ZOMPROPERTIES_03 0 IsRoot bool true TopoStable table {Selected bool false Box box3d 0 1 0 1 0 1 U int 0 V int 0 NU in
#ZOMPROPERTIES_03 t 1 NV int 1 Tiling vector3d 1 1 1 TileRatioMode string "1:1" Pack table {Rotate table {Mode int 2 M
#ZOMPROPERTIES_03 in double 0 Max double 180 Step double 0 } SpacingSize double 0.0078125 MarginSize double 0.00390625
#ZOMPROPERTIES_03  Resolution int 200 Scaling table {Mode int 0 } LayoutScalingMode int 2 MaxMutations int 1 } } IsTil
#ZOMPROPERTIES_03 e bool false PolyIDs ints { } } Maps table {Density table {PrimType string "Polygon" Size int 1 Defa
#ZOMPROPERTIES_03 ultValue double 1 ScaleType string "Log" MergeMode string "Average" MinValue double 0.1 MaxValue dou
#ZOMPROPERTIES_03 ble 4 Data doubles { r 6 1 } } Pin table {PrimType string "Vertex" Size int 1 DefaultValue double 0 
#ZOMPROPERTIES_03 ScaleType string "Normalized" MergeMode string "Max" MinValue double 0 MaxValue double 1 Data double
#ZOMPROPERTIES_03 s { r 24 0 } } Protect table {PrimType string "Vertex" Size int 1 DefaultValue double 0 ScaleType st
#ZOMPROPERTIES_03 ring "Normalized" MergeMode string "Average" MinValue double -1 MaxValue double 1 Data doubles { r 2
#ZOMPROPERTIES_03 4 0 } } } } }
#ZOMPROPERTIES_03 }

#begin 0 fatal error vertex (that RizomUV cannot handle)
#end 0 fatal error vertex (that RizomUV cannot handle)

#begin 0 error vertex
#end 0 error vertex
