#File written by RizomUV 2020.1.111.g89b05bd. Compilation :Jan  6 2021,08:31:11
mtllib 
#begin vertices
v -30.24843 -98.53231 74.38484
v -47.44656 -98.53231 47.4223
v -40.4958 50.98022 36.00622
v -23.29766 46.45147 62.58572
v -47.44656 -98.53233 -47.42226
v -30.24843 -98.53233 -74.38481
v -21.14623 119.6629 42.80357
v -40.4958 63.25011 -21.75515
v 47.44656 -98.53231 47.42229
v 30.24843 -98.53231 74.38484
v 23.29767 46.45147 62.58572
v 40.4958 50.98022 36.00622
v 30.24843 -98.53233 -74.38481
v 47.44656 -98.53233 -47.42227
v -36.7562 109.9142 20.73595
v 23.29766 67.77887 -62.58573
v -40.4958 95.84011 29.64476
v -23.29766 110.6597 51.70946
v -23.29767 67.77888 -62.58574
v 21.14623 77.51332 -62.78105
v 23.29767 110.6597 51.70946
v 40.4958 95.84011 29.64476
v 40.4958 63.25011 -21.75516
v -36.7562 83.50197 -39.05241
v -21.14624 77.51333 -62.78108
v 21.14624 119.6629 42.80357
v 36.7562 109.9142 20.73595
v 36.7562 83.50197 -39.05241
v -17.70345 126.2852 21.40176
v -30.77199 110.8988 2.926922
v 17.70345 98.52923 -58.06262
v -30.77199 103.5429 -47.1274
v -17.70345 98.52924 -58.06263
v 17.70345 126.2852 21.40176
v 30.77199 110.8988 2.926922
v 30.77199 103.5429 -47.12741
v -7.070089e-07 121.3224 -40.99818
v 0.5191425 63.25011 -21.75515
v 2.828036e-06 -98.53231 74.38484
v 0 46.45147 62.58572
v -2.828036e-06 -98.53233 -74.38481
v -1.414018e-06 77.51332 -62.78106
v 0 67.77887 -62.58574
v 0 98.52923 -58.06262
v 0 110.6597 51.70946
v 1.414018e-06 119.6629 42.80357
v 0 126.2852 21.40176
v -17.57097 69.90874 81.26678
v -17.57097 79.70703 73.89427
v -17.57098 50.29424 -22.26983
v -17.57098 62.46497 -23.76445
v 17.57097 69.90874 81.26678
v 17.57097 79.70703 73.89427
v 17.57098 50.29424 -22.26983
v 17.57098 62.46497 -23.76445
v -24.20235 54.5019 11.99319
v -24.20235 66.67262 10.49857
v 24.20235 54.5019 11.99319
v 24.20235 66.67262 10.49857
v -3.535044e-07 44.56331 -21.56604
v -3.535044e-07 68.1959 -24.46823
v -3.535044e-07 67.73099 82.90538
v -3.535044e-07 83.09752 71.34317
v -3.535044e-07 72.98449 9.723443
v -3.535044e-07 49.69642 12.58333
v -8.192205 79.55901 94.0923
v -8.192205 89.3573 86.71979
v 8.192205 89.3573 86.71979
v 8.192205 79.55901 94.0923
v -3.535044e-07 79.55901 94.0923
v -3.535044e-07 89.3573 86.71979
v -20.24492 59.6497 53.91192
v 20.24492 71.82043 52.4173
v -20.24492 71.82043 52.4173
v 20.24492 59.6497 53.91192
v -3.535044e-07 76.87881 51.79611
v -3.535044e-07 56.09771 54.34812
#end vertices

#begin 123 textures vertices 
vt 0.9277278 0.00390625 0
vt 0.8557328 0.01037057 0
vt 0.5918391 0.7246329 0
vt 0.9434431 0.3330001 0
vt 0.6430056 0.03716647 0
vt 0.5717597 0.04949502 0
vt 0.8736334 0.5632559 0
vt 0.7471868 0.3938613 0
vt 0.1442632 0.01033934 0
vt 0.07226531 0.00390625 0
vt 0.05654407 0.332981 0
vt 0.1268545 0.3495687 0
vt 0.4288926 0.04952672 0
vt 0.3570761 0.03704839 0
vt 0.8357885 0.5131698 0
vt 0.3527494 0.4154863 0
vt 0.8624692 0.4844918 0
vt 0.9007961 0.5526973 0
vt 0.6477512 0.4159225 0
vt 0.3529176 0.437155 0
vt 0.1023874 0.5565201 0
vt 0.1388104 0.4883705 0
vt 0.2527006 0.3937399 0
vt 0.7112793 0.4409319 0
vt 0.648086 0.4369648 0
vt 0.1294322 0.5651229 0
vt 0.1664672 0.5146665 0
vt 0.2901544 0.4404741 0
vt 0.8246435 0.5694067 0
vt 0.7943915 0.517449 0
vt 0.344132 0.4839271 0
vt 0.6936373 0.4854897 0
vt 0.6579569 0.4833529 0
vt 0.1782665 0.5689843 0
vt 0.2082435 0.5167545 0
vt 0.3090647 0.4839381 0
vt 0.6286268 0.5267839 0
vt 0.4992992 0.5914616 0
vt 0.00390625 0.003967384 0
vt 0.9960938 0.3330072 0
vt 0.5051961 0.0666751 0
vt 0.3970073 0.4547976 0
vt 0.4035656 0.4313674 0
vt 0.3749832 0.5047131 0
vt 0.1020675 0.6102465 0
vt 0.1310634 0.6114745 0
vt 0.1858846 0.6078041 0
vt 0.08342713 0.5739921 0
vt 0.3172425 0.5977875 0
vt 0.1089272 0.8129755 0
vt 0.6012766 0.5308932 0
vt 0.9789562 0.3958732 0
vt 0.9531781 0.4058935 0
vt 0.958642 0.6348098 0
vt 0.3780069 0.8284313 0
vt 0.114912 0.7338769 0
vt 0.6130567 0.6092971 0
vt 0.00390625 0.7449332 0
vt 0.9430835 0.5522945 0
vt 0.06740786 0.8173903 0
vt 0.336522 0.8242077 0
vt 0.04344753 0.5772238 0
vt 0.3575454 0.6047916 0
vt 0.3439113 0.7467206 0
vt 0.0595379 0.7399255 0
vt 0.05831234 0.5392596 0
vt 0.3427414 0.5648409 0
vt 0.9379869 0.3668131 0
vt 0.963765 0.3567927 0
vt 0.03962225 0.5410003 0
vt 0.3609825 0.5673249 0
vt 0.6546221 0.6998004 0
vt 0.9573122 0.4576838 0
vt 0.3058162 0.6479036 0
vt 0.9846617 0.4617969 0
vt 0.353019 0.6513948 0
vt 0.05021729 0.6455592 0
vt 0.67267 0.5616047 0
vt 0.591811 0.5914513 0
vt 0.5004809 0.7854334 0
vt 0.4091155 0.7246431 0
vt 0.5530271 0.7854311 0
vt 0.4479346 0.7854369 0
vt 0.8731067 0.3496188 0
vt 0.4091292 0.5914615 0
vt 0.4091155 0.4541957 0
vt 0.4479129 0.394252 0
vt 0.5004592 0.3942497 0
vt 0.5530054 0.3942462 0
vt 0.5918093 0.4541856 0
vt 0.4951476 0.06674011 0
vt 0.5975671 0.4313176 0
vt 0.8725461 0.6111083 0
vt 0.3279416 0.5611898 0
vt 0.6250272 0.503357 0
vt 0.6045868 0.4537696 0
vt 0.8166855 0.6073365 0
vt 0.9026755 0.6090966 0
vt 0.2879705 0.7413983 0
vt 0.4000161 0.7522205 0
vt 0.2949704 0.8204197 0
vt 0.9312924 0.6306967 0
vt 0.02581613 0.8212527 0
vt 0.970433 0.5564076 0
vt 0.6489474 0.7657269 0
vt 0.09610282 0.6397746 0
vt 0.6404068 0.6051878 0
vt 0.6337502 0.804805 0
vt 0.9570705 0.3395707 0
vt 0.6270532 0.822026 0
vt 0.6012766 0.8120018 0
vt 0.9312924 0.3495911 0
vt 0.6079737 0.7947808 0
vt 0.6231708 0.7557026 0
vt 0.627272 0.7039097 0
vt 0.4000161 0.6567301 0
vt 0.3981952 0.6056322 0
vt 0.00390625 0.5818163 0
vt 0.004009705 0.6487528 0
vt 0.02118207 0.5431473 0
vt 0.3792173 0.5688811 0
vt 0.9960937 0.00393972 0
vt 0.00390625 0.3330073 0
#end 123 textures vertices 

#begin 288 normals 
vn 0 10.56074 73.95634
vn 0 10.56074 73.95634
vn -17.7104 13.22905 68.28199
vn -18.27724 13.2869 67.90742
vn 43.95421 13.50577 -26.08843
vn 44.8077 15.91735 -21.30648
vn 44.14346 12.17313 25.67352
vn 43.09451 12.55439 29.64242
vn 2.725284e-06 9.219144 -74.05852
vn 6.532483e-06 3.306547 -74.34293
vn 22.63387 1.261997 -65.36855
vn 20.99599 13.99641 -65.86311
vn -43.09451 12.55439 29.64243
vn -44.14346 12.17314 25.67353
vn -44.8077 15.91735 -21.30647
vn -43.95421 13.50577 -26.08842
vn -18.27724 13.2869 67.90742
vn -17.7104 13.22905 68.28199
vn -44.14346 12.17314 25.67353
vn -43.09451 12.55439 29.64243
vn -22.63387 1.26192 -65.36855
vn -20.99599 13.99641 -65.86311
vn -43.95421 13.50577 -26.08842
vn -44.8077 15.91735 -21.30647
vn 44.8077 15.91735 -21.30648
vn 43.95421 13.50577 -26.08843
vn 20.99599 13.99641 -65.86311
vn 22.63387 1.261997 -65.36855
vn 17.7104 13.22905 68.28199
vn 18.27725 13.2869 67.90742
vn 43.09451 12.55439 29.64242
vn 44.14346 12.17313 25.67352
vn 16.33318 6.49161 -69.6663
vn 1.258963e-05 12.89524 -73.74506
vn 1.9495e-05 50.24874 -63.98515
vn 10.1555 50.96561 -61.63813
vn 6.532483e-06 3.306547 -74.34293
vn -22.63387 1.26192 -65.36855
vn -16.33317 6.491533 -69.66631
vn 1.258963e-05 12.89524 -73.74506
vn -38.89494 54.41178 11.29055
vn -15.90329 77.73507 38.30942
vn -12.221 88.01143 27.41225
vn -34.01111 68.49986 3.9705
vn -44.8077 15.91735 -21.30647
vn -38.89494 54.41178 11.29055
vn -34.01111 68.49986 3.9705
vn -40.31078 23.22798 -35.09517
vn 44.8077 15.91735 -21.30648
vn 22.63387 1.261997 -65.36855
vn 16.33318 6.49161 -69.6663
vn 40.31076 23.22799 -35.09518
vn 38.89493 54.41176 11.29056
vn 44.8077 15.91735 -21.30648
vn 40.31076 23.22799 -35.09518
vn 34.01112 68.49986 3.970502
vn -22.63387 1.26192 -65.36855
vn -44.8077 15.91735 -21.30647
vn -40.31078 23.22798 -35.09517
vn -16.33317 6.491533 -69.66631
vn 0 78.32771 45.12796
vn 15.9033 77.73505 38.30944
vn 12.221 88.01142 27.41226
vn 0 89.11865 31.72927
vn 15.9033 77.73505 38.30944
vn 38.89493 54.41176 11.29056
vn 34.01112 68.49986 3.970502
vn 12.221 88.01142 27.41226
vn 34.01112 68.49986 3.970502
vn 40.31076 23.22799 -35.09518
vn 26.004 65.53657 -37.72606
vn 25.00236 82.75067 -9.697443
vn -34.01111 68.49986 3.9705
vn -12.221 88.01143 27.41225
vn -9.200519 96.6554 0.8552867
vn -25.00236 82.75067 -9.697442
vn 0 89.11865 31.72927
vn 12.221 88.01142 27.41226
vn 9.200519 96.6554 0.855284
vn 0 98.17862 6.297045
vn -40.31078 23.22798 -35.09517
vn -34.01111 68.49986 3.9705
vn -25.00236 82.75067 -9.697442
vn -26.004 65.53659 -37.72602
vn -16.33317 6.491533 -69.66631
vn -40.31078 23.22798 -35.09517
vn -26.004 65.53659 -37.72602
vn -10.1555 50.96564 -61.6381
vn 40.31076 23.22799 -35.09518
vn 16.33318 6.49161 -69.6663
vn 10.1555 50.96561 -61.63813
vn 26.004 65.53657 -37.72606
vn 12.221 88.01142 27.41226
vn 34.01112 68.49986 3.970502
vn 25.00236 82.75067 -9.697443
vn 9.200519 96.6554 0.855284
vn 1.258963e-05 12.89524 -73.74506
vn -16.33317 6.491533 -69.66631
vn -10.1555 50.96564 -61.6381
vn 1.9495e-05 50.24874 -63.98515
vn 9.200519 96.6554 0.855284
vn 25.00236 82.75067 -9.697443
vn 4.372687e-06 91.23101 -28.10037
vn 25.00236 82.75067 -9.697443
vn 26.004 65.53657 -37.72606
vn 4.372687e-06 91.23101 -28.10037
vn -26.004 65.53659 -37.72602
vn -25.00236 82.75067 -9.697442
vn 4.372687e-06 91.23101 -28.10037
vn -25.00236 82.75067 -9.697442
vn -9.200519 96.6554 0.8552867
vn 4.372687e-06 91.23101 -28.10037
vn -9.200519 96.6554 0.8552867
vn 0 98.17862 6.297045
vn 4.372687e-06 91.23101 -28.10037
vn -0.3566309 97.48192 10.81798
vn 0 97.43699 11.06041
vn 0.00201219 97.39378 11.2752
vn -0.4526011 97.44308 11.00691
vn 0.00201219 97.39378 11.2752
vn 1.180761e-06 97.28927 11.7782
vn 0.00201219 97.39378 11.2752
vn 0.4625165 97.44228 11.00994
vn 4.267919e-06 97.28928 11.7782
vn 0.255864 -88.4715 32.74274
vn -0.001454394 -88.66483 32.44582
vn -0.255773 -88.47619 32.73552
vn 0 -88.57939 32.57854
vn 0.00201219 97.39378 11.2752
vn 0.3565538 97.47986 10.82859
vn 0.4625165 97.44228 11.00994
vn 0.00201219 97.39378 11.2752
vn -0.4526011 97.44308 11.00691
vn -0.3566309 97.48192 10.81798
vn -0.255773 -88.47619 32.73552
vn -0.001454394 -88.66483 32.44582
vn -0.3165785 -88.55898 32.60637
vn -0.3165785 -88.55898 32.60637
vn -0.001454394 -88.66483 32.44582
vn -2.812492e-06 -88.87556 32.11556
vn -0.001454394 -88.66483 32.44582
vn 0.3098137 -88.55779 32.60838
vn -8.54089e-06 -88.87556 32.11557
vn 0.3098137 -88.55779 32.60838
vn -0.001454394 -88.66483 32.44582
vn 0.255864 -88.4715 32.74274
vn 26.004 65.53657 -37.72606
vn 10.1555 50.96561 -61.63813
vn 4.372687e-06 91.23101 -28.10037
vn -10.1555 50.96564 -61.6381
vn -26.004 65.53659 -37.72602
vn 4.372687e-06 91.23101 -28.10037
vn 4.372687e-06 91.23101 -28.10037
vn 1.9495e-05 50.24874 -63.98515
vn -10.1555 50.96564 -61.6381
vn 18.27725 13.2869 67.90742
vn 17.7104 13.22905 68.28199
vn 0 10.56074 73.95634
vn 0 10.56074 73.95634
vn 0.00201219 97.39378 11.2752
vn 0 97.43699 11.06041
vn 0.3565538 97.47986 10.82859
vn 22.63387 1.261997 -65.36855
vn 6.532483e-06 3.306547 -74.34293
vn 1.258963e-05 12.89524 -73.74506
vn 16.33318 6.49161 -69.6663
vn -20.99599 13.99641 -65.86311
vn -22.63387 1.26192 -65.36855
vn 6.532483e-06 3.306547 -74.34293
vn 2.725284e-06 9.219144 -74.05852
vn -12.221 88.01143 27.41225
vn 0 89.11865 31.72927
vn 0 98.17862 6.297045
vn -9.200519 96.6554 0.8552867
vn -15.90329 77.73507 38.30942
vn 0 78.32771 45.12796
vn 0 89.11865 31.72927
vn -12.221 88.01143 27.41225
vn 1.9495e-05 50.24874 -63.98515
vn 4.372687e-06 91.23101 -28.10037
vn 10.1555 50.96561 -61.63813
vn 4.372687e-06 91.23101 -28.10037
vn 0 98.17862 6.297045
vn 9.200519 96.6554 0.855284
vn -47.34894 -1.01432 -4.707292
vn -47.2822 -1.315677 -6.105843
vn -45.40978 -4.585527 -21.28071
vn -45.40978 -4.585527 -21.28071
vn 0 97.82223 -8.914217
vn -6.602632 96.87041 -8.827481
vn -6.207059 97.24915 -6.962682
vn -1.137054e-07 98.07719 -7.141247
vn 46.87821 4.99368 10.84226
vn 46.87609 5.067555 10.84525
vn 43.39647 25.91894 22.8351
vn 40.13373 35.74194 29.08793
vn -2.261145e-07 94.11614 -22.01972
vn -4.988192 94.10909 -20.6026
vn -3.862777 91.79075 -26.35475
vn 0 92.09647 -26.44253
vn 0 -96.53518 14.90055
vn 4.097039 -96.33107 14.25499
vn 3.488833 -90.77439 28.40913
vn 5.772088e-08 -88.26145 33.06667
vn -2.260674e-07 97.31841 -11.64021
vn -5.727759 96.74375 -10.88192
vn -4.988192 94.10909 -20.6026
vn -2.261145e-07 94.11614 -22.01972
vn 0 -98.18354 6.253216
vn 5.777762 -97.45284 6.206678
vn 5.01859 -97.50909 7.240052
vn 0 -98.06506 7.23561
vn 45.40978 -4.585528 -21.28072
vn 45.40978 -4.585528 -21.28072
vn 47.2822 -1.315677 -6.105846
vn 47.34894 -1.01432 -4.707296
vn -46.87821 4.99368 10.84226
vn -46.87609 5.067554 10.84526
vn -47.2822 -1.315677 -6.105843
vn -47.34894 -1.01432 -4.707292
vn -5.777762 -97.45284 6.206678
vn 0 -98.18354 6.253216
vn 0 -98.06506 7.23561
vn -5.01859 -97.50909 7.240052
vn 5.727759 96.74375 -10.88192
vn -2.260674e-07 97.31841 -11.64021
vn -2.261145e-07 94.11614 -22.01972
vn 4.988191 94.10909 -20.6026
vn -4.097039 -96.33107 14.25499
vn 0 -96.53518 14.90055
vn 5.772088e-08 -88.26145 33.06667
vn -3.488833 -90.77439 28.40913
vn -3.488833 -90.77439 28.40913
vn 5.772088e-08 -88.26145 33.06667
vn 0 -80.03748 43.38454
vn -2.687084 -79.90902 43.31491
vn 6.602632 96.87041 -8.827481
vn 0 97.82223 -8.914217
vn -1.137054e-07 98.07719 -7.141247
vn 6.207059 97.24915 -6.962682
vn 0 69.55718 52.68521
vn 0 69.55718 52.68521
vn -18.79553 63.86671 48.37499
vn -16.6566 65.13008 49.33192
vn 16.6566 65.13008 49.33193
vn 18.79553 63.86671 48.37499
vn 0 69.55718 52.68521
vn 0 69.55718 52.68521
vn 40.13373 35.74194 29.08793
vn 43.39647 25.91894 22.8351
vn 18.79553 63.86671 48.37499
vn 16.6566 65.13008 49.33193
vn 4.988191 94.10909 -20.6026
vn -2.261145e-07 94.11614 -22.01972
vn 0 92.09647 -26.44253
vn 3.862777 91.79075 -26.35475
vn -43.39647 25.91895 22.8351
vn -40.13373 35.74194 29.08793
vn -16.6566 65.13008 49.33192
vn -18.79553 63.86671 48.37499
vn 5.772088e-08 -88.26145 33.06667
vn 3.488833 -90.77439 28.40913
vn 2.687084 -79.90902 43.31491
vn 0 -80.03748 43.38454
vn -5.01859 -97.50909 7.240052
vn 0 -98.06506 7.23561
vn 0 -96.53518 14.90055
vn -4.097039 -96.33107 14.25499
vn 6.207059 97.24915 -6.962682
vn -1.137054e-07 98.07719 -7.141247
vn -2.260674e-07 97.31841 -11.64021
vn 5.727759 96.74375 -10.88192
vn -40.13373 35.74194 29.08793
vn -43.39647 25.91895 22.8351
vn -46.87609 5.067554 10.84526
vn -46.87821 4.99368 10.84226
vn -1.137054e-07 98.07719 -7.141247
vn -6.207059 97.24915 -6.962682
vn -5.727759 96.74375 -10.88192
vn -2.260674e-07 97.31841 -11.64021
vn 0 -98.06506 7.23561
vn 5.01859 -97.50909 7.240052
vn 4.097039 -96.33107 14.25499
vn 0 -96.53518 14.90055
vn 47.34894 -1.01432 -4.707296
vn 47.2822 -1.315677 -6.105846
vn 46.87609 5.067555 10.84525
vn 46.87821 4.99368 10.84226
#end 288 normals 

#begin 77 faces
o Cube
s 1
f 39/122/1 40/40/2 4/4/3 1/1/4 
s 1
f 14/14/5 23/23/6 12/12/7 9/9/8 
s 1
f 41/91/9 43/43/10 16/16/11 13/13/12 
s 1
f 2/2/13 3/84/14 8/8/15 5/5/16 
s 1
f 1/1/17 4/4/18 3/84/19 2/2/20 
s 1
f 19/19/21 6/6/22 5/5/23 8/8/24 
s 1
f 23/23/25 14/14/26 13/13/27 16/16/28 
s 1
f 11/11/29 10/10/30 9/9/31 12/12/32 
s 1
f 20/20/33 42/42/34 44/44/35 31/31/36 
s 1
f 43/92/37 19/19/38 25/25/39 42/96/40 
s 1
f 17/17/41 18/18/42 7/7/43 15/15/44 
s 1
f 8/8/45 17/17/46 15/15/47 24/24/48 
s 1
f 23/23/49 16/16/50 20/20/51 28/28/52 
s 1
f 22/22/53 23/23/54 28/28/55 27/27/56 
s 1
f 19/19/57 8/8/58 24/24/59 25/25/60 
s 1
f 45/45/61 21/21/62 26/26/63 46/46/64 
s 1
f 21/21/65 22/22/66 27/27/67 26/26/68 
s 1
f 27/27/69 28/28/70 36/36/71 35/35/72 
s 1
f 15/15/73 7/7/74 29/29/75 30/30/76 
s 1
f 46/46/77 26/26/78 34/34/79 47/47/80 
s 1
f 24/24/81 15/15/82 30/30/83 32/32/84 
s 1
f 25/25/85 24/24/86 32/32/87 33/33/88 
s 1
f 28/28/89 20/20/90 31/31/91 36/36/92 
s 1
f 26/26/93 27/27/94 35/35/95 34/34/96 
s 1
f 42/96/97 25/25/98 33/33/99 44/95/100 
s 1
f 34/34/101 35/35/102 37/94/103 
s 1
f 35/35/104 36/36/105 37/94/106 
s 1
f 32/32/107 30/30/108 37/78/109 
s 1
f 30/30/110 29/29/111 37/78/112 
s 1
f 29/29/113 47/97/114 37/78/115 
s 2
f 4/82/116 40/80/117 38/38/118 
s 2
f 3/3/119 38/38/120 8/79/121 
s 2
f 38/38/122 12/81/123 23/85/124 
s 4
f 18/89/125 38/38/126 21/87/127 45/88/128 
s 2
f 38/38/129 11/83/130 12/81/131 
s 2
f 38/38/132 3/3/133 4/82/134 
s 4
f 21/87/135 38/38/136 22/86/137 
s 4
f 22/86/138 38/38/139 23/85/140 
s 4
f 38/38/141 17/90/142 8/79/143 
s 4
f 17/90/144 38/38/145 18/89/146 
s 1
f 36/36/147 31/31/148 37/94/149 
s 1
f 33/33/150 32/32/151 37/78/152 
s 1
f 37/78/153 44/95/154 33/33/155 
s 1
f 10/10/156 11/11/157 40/123/158 39/39/159 
s 2
f 38/38/160 40/80/161 11/83/162 
s 1
f 16/16/163 43/43/164 42/42/165 20/20/166 
s 1
f 6/6/167 19/19/168 43/92/169 41/41/170 
s 1
f 7/7/171 46/93/172 47/97/173 29/29/174 
s 1
f 18/18/175 45/98/176 46/93/177 7/7/178 
s 1
f 44/44/179 37/94/180 31/31/181 
s 1
f 37/94/182 47/47/183 34/34/184 
s 1
f 56/107/185 57/57/186 51/51/187 50/37/188 
s 2
f 61/61/189 51/101/190 57/99/191 64/64/192 
s 1
f 75/75/193 73/73/194 53/53/195 52/52/196 
s 2
f 63/63/197 49/49/198 67/67/199 71/71/200 
s 2
f 77/77/201 75/119/202 52/118/203 62/62/204 
s 2
f 76/76/205 74/74/206 49/49/207 63/63/208 
s 2
f 60/60/209 54/103/210 58/58/211 65/65/212 
s 1
f 54/54/213 55/102/214 59/59/215 58/104/216 
s 1
f 72/72/217 74/115/218 57/57/219 56/107/220 
s 2
f 50/50/221 60/60/222 65/65/223 56/56/224 
s 2
f 73/116/225 76/76/226 63/63/227 53/117/228 
s 2
f 72/106/229 77/77/230 62/62/231 48/48/232 
s 2
f 48/48/233 62/62/234 70/70/235 66/66/236 
s 2
f 55/55/237 61/61/238 64/64/239 59/100/240 
s 1
f 70/110/241 71/111/242 67/113/243 66/108/244 
s 1
f 69/69/245 68/68/246 71/112/247 70/109/248 
s 1
f 52/52/249 53/53/250 68/68/251 69/69/252 
s 2
f 53/117/253 63/63/254 71/71/255 68/121/256 
s 1
f 49/114/257 48/105/258 66/108/259 67/113/260 
s 2
f 62/62/261 52/118/262 69/120/263 70/70/264 
s 2
f 56/56/265 65/65/266 77/77/267 72/106/268 
s 2
f 59/100/269 64/64/270 76/76/271 73/116/272 
s 1
f 48/105/273 49/114/274 74/115/275 72/72/276 
s 2
f 64/64/277 57/99/278 74/74/279 76/76/280 
s 2
f 65/65/281 58/58/282 75/119/283 77/77/284 
s 1
f 58/104/285 59/59/286 73/73/287 75/75/288 
#end 77 faces

#ZOMPROPERTIES_03 {
#ZOMPROPERTIES_03 table {Mesh table {SymPlane table {Point vector3d 0 0 0 Normal vector3d 1 0 0 Threshold double 0.01 
#ZOMPROPERTIES_03 Enabled bool false EdgeID int -1 SymEdgeID int -1 UPos double 0.5 LocalMode bool false } RootGroup C
#ZOMPROPERTIES_03 SubMeshGroup {Children table {Tile_0_0 CSubMeshGroup {Children table {} BBoxUV box3d 0 0 0 0 0 0 BBo
#ZOMPROPERTIES_03 x3D box3d 0 0 0 0 0 0 AreaUV double 0 VisibleAreaUV double 0.535637 Area3D double 0 IsRoot bool fals
#ZOMPROPERTIES_03 e TopoStable table {Selected bool false Box box3d 0 1 0 1 0 1 U int 0 V int 0 NU int 0 NV int 0 Tili
#ZOMPROPERTIES_03 ng vector3d 1 1 1 TileRatioMode string "1:1" } IsTile bool true PolyIDs ints { 0 4 3 5 46 9 24 42 41
#ZOMPROPERTIES_03  27 28 29 47 48 10 11 14 20 18 21 1 7 43 6 2 45 8 49 40 26 17 13 16 15 19 50 23 22 25 12 30 44 34 32
#ZOMPROPERTIES_03  37 36 33 39 38 31 35 51 59 73 69 65 52 74 56 54 68 61 72 64 53 67 66 76 58 55 70 63 75 57 60 71 62 
#ZOMPROPERTIES_03 } } } BBoxUV box3d 0 0 0 0 0 0 BBox3D box3d 0 0 0 0 0 0 AreaUV double 0 VisibleAreaUV double 0 Area3
#ZOMPROPERTIES_03 D double 0 IsRoot bool true TopoStable table {Selected bool false Box box3d 0 1 0 1 0 1 U int 0 V in
#ZOMPROPERTIES_03 t 0 NU int 1 NV int 1 Tiling vector3d 1 1 1 TileRatioMode string "1:1" Pack table {Rotate table {Mod
#ZOMPROPERTIES_03 e int 2 Min double 0 Max double 180 Step double 0 } SpacingSize double 0.0078125 MarginSize double 0
#ZOMPROPERTIES_03 .00390625 Resolution int 200 Scaling table {Mode int 0 } LayoutScalingMode int 2 MaxMutations int 1 
#ZOMPROPERTIES_03 } } IsTile bool false PolyIDs ints { } } Maps table {Density table {PrimType string "Polygon" Size i
#ZOMPROPERTIES_03 nt 1 DefaultValue double 1 ScaleType string "Log" MergeMode string "Average" MinValue double 0.1 Max
#ZOMPROPERTIES_03 Value double 4 Data doubles { r 77 1 } } Pin table {PrimType string "Vertex" Size int 1 DefaultValue
#ZOMPROPERTIES_03  double 0 ScaleType string "Normalized" MergeMode string "Max" MinValue double 0 MaxValue double 1 D
#ZOMPROPERTIES_03 ata doubles { r 123 0 } } Protect table {PrimType string "Vertex" Size int 1 DefaultValue double 0 S
#ZOMPROPERTIES_03 caleType string "Normalized" MergeMode string "Average" MinValue double -1 MaxValue double 1 Data do
#ZOMPROPERTIES_03 ubles { r 123 0 } } } } }
#ZOMPROPERTIES_03 }

#begin 0 fatal error vertex (that RizomUV cannot handle)
#end 0 fatal error vertex (that RizomUV cannot handle)

#begin 0 error vertex
#end 0 error vertex
