#File written by RizomUV 2020.1.111.g89b05bd. Compilation :Jan  6 2021,08:31:11
mtllib 
#begin vertices
v 14.66019 -45.61331 -52.77003
v 14.66019 45.6134 -52.77004
v 39.08111 -45.61331 -38.37009
v 39.08112 45.6134 -38.3701
v 53.03029 -45.6133 -13.68891
v 53.03029 45.61341 -13.68893
v 52.77004 -45.6133 14.6602
v 52.77004 45.61341 14.66018
v 38.37009 -45.61329 39.08112
v 38.3701 45.61342 39.08111
v 13.68892 -45.61329 53.03029
v 13.68892 45.61342 53.03028
v -14.66019 -45.61329 52.77004
v -14.66019 45.61342 52.77003
v -39.08112 -45.61329 38.3701
v -39.08111 45.61342 38.37009
v -53.03029 -45.61329 13.68893
v -53.03029 45.61342 13.68891
v -52.77004 -45.6133 -14.66018
v -52.77004 45.61341 -14.6602
v -38.3701 -45.6133 -39.08111
v -38.37009 45.61341 -39.08112
v -13.68892 -45.61331 -53.03028
v -13.68892 45.6134 -53.03029
v -4.204913e-07 -45.61329 7.08046e-06
v 1.377657e-06 45.61342 -6.814568e-06
v -24.05153 -16.99587 279.723
v -24.05153 16.99608 279.723
v 18.91209 -16.99587 280.1174
v 18.91209 16.99608 280.1174
v -38.3701 11.21468 -39.08112
v -38.3701 -11.21457 -39.08111
v -52.77004 11.21468 -14.66019
v -52.77004 -11.21457 -14.66019
v -53.03029 11.21469 13.68892
v -53.03029 -11.21457 13.68892
v -39.08112 11.21469 38.37009
v -39.08112 -11.21456 38.3701
v -14.66019 11.21469 52.77004
v -14.66019 -11.21456 52.77004
v 13.68892 11.21469 53.03029
v 13.68892 -11.21456 53.03029
v 38.3701 11.21469 39.08111
v 38.3701 -11.21457 39.08112
v 52.77004 11.21468 14.66019
v 52.77004 -11.21457 14.66019
v 53.03029 11.21468 -13.68892
v 53.03029 -11.21457 -13.68892
v 39.08112 -11.21458 -38.37009
v 39.08112 11.21468 -38.3701
v 14.66019 11.21467 -52.77004
v 14.66019 -11.21458 -52.77004
v -13.68892 11.21468 -53.03029
v -13.68892 -11.21458 -53.03029
#end vertices

#begin 96 textures vertices 
vt 0.7104828 0.6751347 0
vt 0.7199731 0.00390625 0
vt 0.7104828 0.591135 0
vt 0.9860425 0.8424357 0
vt 0.7104828 0.5071354 0
vt 0.9860425 0.7584361 0
vt 0.7104828 0.4231357 0
vt 0.9440427 0.6856902 0
vt 0.7104828 0.339136 0
vt 0.8712968 0.6436904 0
vt 0.7104828 0.2551364 0
vt 0.7872971 0.6436904 0
vt 0.7104828 0.1711367 0
vt 0.7145513 0.6856902 0
vt 0.9902705 0.4239046 0
vt 0.6725515 0.7584361 0
vt 0.9902705 0.3399049 0
vt 0.6725515 0.8424357 0
vt 0.9902705 0.2559053 0
vt 0.7145513 0.9151816 0
vt 0.9902705 0.1719056 0
vt 0.7872971 0.9571814 0
vt 0.9902705 0.08790592 0
vt 0.7199731 0.08790592 0
vt 0.4214708 0.8393482 0
vt 0.829297 0.8004359 0
vt 0.4686384 0.1312094 0
vt 0.5693538 0.1312094 0
vt 0.4686384 0.00390625 0
vt 0.5693538 0.00390625 0
vt 0.8218938 0.1719056 0
vt 0.8883498 0.1719056 0
vt 0.8218938 0.2559053 0
vt 0.8883498 0.2559053 0
vt 0.8218938 0.3399049 0
vt 0.8883498 0.3399049 0
vt 0.8218938 0.4239046 0
vt 0.8883498 0.4239046 0
vt 0.8218938 0.5079043 0
vt 0.6085621 0.1711367 0
vt 0.5421061 0.2551364 0
vt 0.6085621 0.2551364 0
vt 0.5421061 0.339136 0
vt 0.6085621 0.339136 0
vt 0.5421061 0.4231357 0
vt 0.6085621 0.4231357 0
vt 0.5421061 0.5071354 0
vt 0.6085621 0.5071354 0
vt 0.6085621 0.591135 0
vt 0.5421061 0.591135 0
vt 0.8218938 0.00390625 0
vt 0.6085621 0.6751347 0
vt 0.8218938 0.08790592 0
vt 0.8883498 0.08790592 0
vt 0.8712968 0.9571814 0
vt 0.9440427 0.9151816 0
vt 0.4401854 0.6751347 0
vt 0.379471 0.6826027 0
vt 0.5421061 0.6751347 0
vt 0.5782164 0.7973484 0
vt 0.3067251 0.7246025 0
vt 0.9902705 0.00390625 0
vt 0.8883498 0.00390625 0
vt 0.4634707 0.6826027 0
vt 0.5362165 0.7246025 0
vt 0.5782164 0.8813481 0
vt 0.9902705 0.5079043 0
vt 0.5362165 0.9540939 0
vt 0.1540509 0.6858029 0
vt 0.2371398 0.698139 0
vt 0.8883498 0.5079043 0
vt 0.4634707 0.9960938 0
vt 0.379471 0.9960937 0
vt 0.2647253 0.7973484 0
vt 0.2647253 0.8813481 0
vt 0.3067251 0.9540939 0
vt 0.7199731 0.3399049 0
vt 0.7199731 0.4239046 0
vt 0.7199731 0.5079043 0
vt 0.4401854 0.1711367 0
vt 0.4401854 0.2551364 0
vt 0.4401854 0.339136 0
vt 0.4401854 0.4231357 0
vt 0.4401854 0.591135 0
vt 0.4401854 0.5071354 0
vt 0.7199731 0.1719056 0
vt 0.7199731 0.2559053 0
vt 0.2314533 0.01703037 0
vt 0.1311435 0.008000393 0
vt 0.4559826 0.05622868 0
vt 0.00390625 0.00390625 0
vt 0.3573762 0.03572592 0
vt 0.3022043 0.7116675 0
vt 0.00390625 0.6771431 0
vt 0.5421061 0.1711367 0
vt 0.08786247 0.6798445 0
#end 96 textures vertices 

#begin 232 normals 
vn 0.9179826 -1.573693e-05 -99.99579
vn 0.9179826 -1.573693e-05 -99.99579
vn 0.9179826 -1.573693e-05 -99.99579
vn 0.9179826 -1.573693e-05 -99.99579
vn 50.79289 -1.573693e-05 -86.1399
vn 50.79289 -1.573693e-05 -86.1399
vn 50.79289 -1.573693e-05 -86.1399
vn 50.79289 -1.573693e-05 -86.1399
vn 87.05788 -1.152023e-05 -49.2029
vn 87.05788 -1.152023e-05 -49.2029
vn 87.05788 -1.152023e-05 -49.2029
vn 87.05788 -1.152023e-05 -49.2029
vn 99.99579 -4.216698e-06 0.9179826
vn 99.99579 -4.216698e-06 0.9179826
vn 99.99579 -4.216698e-06 0.9179826
vn 99.99579 -4.216698e-06 0.9179826
vn 86.1399 4.216698e-06 50.79289
vn 86.1399 4.216698e-06 50.79289
vn 86.1399 4.216698e-06 50.79289
vn 86.1399 4.216698e-06 50.79289
vn 49.20289 1.152023e-05 87.05788
vn 49.20289 1.152023e-05 87.05788
vn 49.20289 1.152023e-05 87.05788
vn 49.20289 1.152023e-05 87.05788
vn -0.9179797 1.573693e-05 99.99579
vn -0.9179797 1.573693e-05 99.99579
vn -0.9179797 1.573693e-05 99.99579
vn -0.9179797 1.573693e-05 99.99579
vn -50.79289 1.573693e-05 86.1399
vn -50.79289 1.573693e-05 86.1399
vn -50.79289 1.573693e-05 86.1399
vn -50.79289 1.573693e-05 86.1399
vn -87.05788 1.152023e-05 49.2029
vn -87.05788 1.152023e-05 49.2029
vn -87.05788 1.152023e-05 49.2029
vn -87.05788 1.152023e-05 49.2029
vn -49.20289 -1.152023e-05 -87.05788
vn -49.20289 -1.152023e-05 -87.05788
vn -49.20289 -1.152023e-05 -87.05788
vn -49.20289 -1.152023e-05 -87.05788
vn -99.99579 4.216698e-06 -0.9179826
vn -99.99579 4.216698e-06 -0.9179826
vn -99.99579 4.216698e-06 -0.9179826
vn -99.99579 4.216698e-06 -0.9179826
vn 0.9179797 -1.573693e-05 -99.99579
vn 0.9179797 -1.573693e-05 -99.99579
vn 0.9179797 -1.573693e-05 -99.99579
vn 0.9179797 -1.573693e-05 -99.99579
vn -2.904428e-06 -100 1.045462e-05
vn -2.904428e-06 -100 1.045462e-05
vn -2.904428e-06 -100 1.045462e-05
vn -3.29471e-06 -100 1.185946e-05
vn -3.29471e-06 -100 1.185946e-05
vn -3.29471e-06 -100 1.185946e-05
vn -1.354359e-05 -100 1.163325e-05
vn -1.354359e-05 -100 1.163325e-05
vn -1.354359e-05 -100 1.163325e-05
vn -5.817536e-06 -100 2.094049e-05
vn -5.817536e-06 -100 2.094049e-05
vn -5.817536e-06 -100 2.094049e-05
vn -5.817536e-06 -100 2.094049e-05
vn -5.817536e-06 -100 2.094049e-05
vn -5.817536e-06 -100 2.094049e-05
vn -1.070826e-05 -100 1.544747e-05
vn -1.070826e-05 -100 1.544747e-05
vn -1.070826e-05 -100 1.544747e-05
vn -5.427254e-06 -100 1.953565e-05
vn -5.427254e-06 -100 1.953565e-05
vn -5.427254e-06 -100 1.953565e-05
vn -1.500014e-05 -99.99999 1.687618e-05
vn -1.500014e-05 -99.99999 1.687618e-05
vn -1.500014e-05 -99.99999 1.687618e-05
vn 4.821622e-06 -100 1.976187e-05
vn 4.821622e-06 -100 1.976187e-05
vn 4.821622e-06 -100 1.976187e-05
vn 9.218084e-06 -100 1.795673e-05
vn 9.218084e-06 -100 1.795673e-05
vn 9.218084e-06 -100 1.795673e-05
vn 6.278178e-06 -99.99999 1.451893e-05
vn 6.278178e-06 -99.99999 1.451893e-05
vn 6.278178e-06 -99.99999 1.451893e-05
vn -2.904428e-06 -100 1.045462e-05
vn -2.904428e-06 -100 1.045462e-05
vn -2.904428e-06 -100 1.045462e-05
vn 2.228438e-06 100 -8.021368e-06
vn 2.228438e-06 100 -8.021368e-06
vn 2.228438e-06 100 -8.021368e-06
vn -1.76979e-05 100 -1.053063e-05
vn -1.76979e-05 100 -1.053063e-05
vn -1.76979e-05 100 -1.053063e-05
vn 1.447874e-06 100 -5.211688e-06
vn 1.447874e-06 100 -5.211688e-06
vn 1.447874e-06 100 -5.211688e-06
vn 2.228438e-06 99.99999 -8.021367e-06
vn 2.228438e-06 99.99999 -8.021367e-06
vn 2.228438e-06 99.99999 -8.021367e-06
vn 1.535943e-05 100 -9.615517e-06
vn 1.535943e-05 100 -9.615517e-06
vn 1.535943e-05 100 -9.615517e-06
vn 7.274091e-06 100 -2.618343e-05
vn 7.274091e-06 100 -2.618343e-05
vn 7.274091e-06 100 -2.618343e-05
vn 2.641986e-05 100 -2.086449e-05
vn 2.641986e-05 100 -2.086449e-05
vn 2.641986e-05 100 -2.086449e-05
vn 1.471443e-05 100 -1.584777e-05
vn 1.471443e-05 100 -1.584777e-05
vn 1.471443e-05 100 -1.584777e-05
vn 6.493526e-06 99.99999 -2.337375e-05
vn 6.493526e-06 99.99999 -2.337375e-05
vn 6.493526e-06 99.99999 -2.337375e-05
vn 6.493526e-06 100 -2.337375e-05
vn 6.493526e-06 100 -2.337375e-05
vn 6.493526e-06 100 -2.337375e-05
vn -2.225218e-06 100 -2.055382e-05
vn -2.225218e-06 100 -2.055382e-05
vn -2.225218e-06 100 -2.055382e-05
vn -5.99247e-06 100 -1.554735e-05
vn -5.99247e-06 100 -1.554735e-05
vn -5.99247e-06 100 -1.554735e-05
vn -0.9179854 1.573693e-05 99.99578
vn -0.9179854 1.573693e-05 99.99578
vn -0.9179854 1.573693e-05 99.99578
vn -0.9179854 1.573693e-05 99.99578
vn -49.20289 -1.152023e-05 -87.05788
vn -49.20289 -1.152023e-05 -87.05788
vn -49.20289 -1.152023e-05 -87.05788
vn -49.20289 -1.152023e-05 -87.05788
vn -86.13991 -4.216698e-06 -50.79289
vn -86.13991 -4.216698e-06 -50.79289
vn -86.13991 -4.216698e-06 -50.79289
vn -86.13991 -4.216698e-06 -50.79289
vn -99.9958 4.216698e-06 -0.9179858
vn -99.9958 4.216698e-06 -0.9179858
vn -99.9958 4.216698e-06 -0.9179858
vn -99.9958 4.216698e-06 -0.9179858
vn -87.05788 1.152023e-05 49.2029
vn -87.05788 1.152023e-05 49.2029
vn -87.05788 1.152023e-05 49.2029
vn -87.05788 1.152023e-05 49.2029
vn -50.79289 1.573693e-05 86.1399
vn -50.79289 1.573693e-05 86.1399
vn -50.79289 1.573693e-05 86.1399
vn -50.79289 1.573693e-05 86.1399
vn -0.9179826 1.573693e-05 99.99579
vn -0.9179826 1.573693e-05 99.99579
vn -0.9179826 1.573693e-05 99.99579
vn -0.9179826 1.573693e-05 99.99579
vn 49.20289 1.152023e-05 87.05788
vn 49.20289 1.152023e-05 87.05788
vn 49.20289 1.152023e-05 87.05788
vn 49.20289 1.152023e-05 87.05788
vn 86.13991 4.216698e-06 50.79289
vn 86.13991 4.216698e-06 50.79289
vn 86.13991 4.216698e-06 50.79289
vn 86.13991 4.216698e-06 50.79289
vn 99.9958 -4.216698e-06 0.9179858
vn 99.9958 -4.216698e-06 0.9179858
vn 99.9958 -4.216698e-06 0.9179858
vn 99.9958 -4.216698e-06 0.9179858
vn 87.05788 -1.152023e-05 -49.2029
vn 87.05788 -1.152023e-05 -49.2029
vn 87.05788 -1.152023e-05 -49.2029
vn 87.05788 -1.152023e-05 -49.2029
vn 50.79289 -1.573693e-05 -86.1399
vn 50.79289 -1.573693e-05 -86.1399
vn 50.79289 -1.573693e-05 -86.1399
vn 50.79289 -1.573693e-05 -86.1399
vn 87.05789 -1.152023e-05 -49.2029
vn 87.05789 -1.152023e-05 -49.2029
vn 87.05789 -1.152023e-05 -49.2029
vn 87.05789 -1.152023e-05 -49.2029
vn 99.99579 -4.216699e-06 0.917974
vn 99.99579 -4.216699e-06 0.917974
vn 99.99579 -4.216699e-06 0.917974
vn 99.99579 -4.216699e-06 0.917974
vn 86.13989 4.216699e-06 50.7929
vn 86.13989 4.216699e-06 50.7929
vn 86.13989 4.216699e-06 50.7929
vn 86.13989 4.216699e-06 50.7929
vn 49.20291 1.152023e-05 87.05789
vn 49.20291 1.152023e-05 87.05789
vn 49.20291 1.152023e-05 87.05789
vn 49.20291 1.152023e-05 87.05789
vn -99.9145 3.708242e-06 -4.134474
vn -99.9145 3.708242e-06 -4.134474
vn -99.9145 3.708242e-06 -4.134474
vn -99.9145 3.708242e-06 -4.134474
vn -50.79289 1.573693e-05 86.1399
vn -50.79289 1.573693e-05 86.1399
vn -50.79289 1.573693e-05 86.1399
vn -50.79289 1.573693e-05 86.1399
vn -87.05789 1.152023e-05 49.2029
vn -87.05789 1.152023e-05 49.2029
vn -87.05789 1.152023e-05 49.2029
vn -87.05789 1.152023e-05 49.2029
vn -99.99579 4.216699e-06 -0.917974
vn -99.99579 4.216699e-06 -0.917974
vn -99.99579 4.216699e-06 -0.917974
vn -99.99579 4.216699e-06 -0.917974
vn -86.13989 -4.216699e-06 -50.7929
vn -86.13989 -4.216699e-06 -50.7929
vn -86.13989 -4.216699e-06 -50.7929
vn -86.13989 -4.216699e-06 -50.7929
vn -49.20291 -1.152023e-05 -87.05789
vn -49.20291 -1.152023e-05 -87.05789
vn -49.20291 -1.152023e-05 -87.05789
vn -49.20291 -1.152023e-05 -87.05789
vn 0.9179797 -1.573693e-05 -99.99579
vn 0.9179797 -1.573693e-05 -99.99579
vn 0.9179797 -1.573693e-05 -99.99579
vn 0.9179797 -1.573693e-05 -99.99579
vn 50.79289 -1.573693e-05 -86.1399
vn 50.79289 -1.573693e-05 -86.1399
vn 50.79289 -1.573693e-05 -86.1399
vn 50.79289 -1.573693e-05 -86.1399
vn -86.1399 -4.216698e-06 -50.79289
vn -86.1399 -4.216698e-06 -50.79289
vn -86.1399 -4.216698e-06 -50.79289
vn -86.1399 -4.216698e-06 -50.79289
vn 0.02336405 -99.96759 -2.545568
vn 0.02336405 -99.96759 -2.545568
vn 0.02336405 -99.96759 -2.545568
vn 0.02336405 -99.96759 -2.545568
vn 0.02337543 99.96759 -2.545603
vn 0.02337543 99.96759 -2.545603
vn 0.02337543 99.96759 -2.545603
vn 0.02337543 99.96759 -2.545603
vn 99.97356 -4.720789e-06 -2.299462
vn 99.97356 -4.720789e-06 -2.299462
vn 99.97356 -4.720789e-06 -2.299462
vn 99.97356 -4.720789e-06 -2.299462
#end 232 normals 

#begin 64 faces
o Cylinder.002
s 1
f 53/53/1 24/24/2 2/2/3 51/51/4 
s 2
f 1/1/5 52/52/6 49/49/7 3/3/8 
s 1
f 3/3/9 49/49/10 48/48/11 5/5/12 
s 2
f 5/5/13 48/48/14 46/46/15 7/7/16 
s 1
f 7/7/17 46/46/18 44/44/19 9/9/20 
s 2
f 9/9/21 44/44/22 42/42/23 11/11/24 
s 0
f 11/11/25 42/42/26 40/40/27 13/13/28 
s 1
f 13/67/29 40/71/30 38/38/31 15/15/32 
s 2
f 15/15/33 38/38/34 36/36/35 17/17/36 
s 2
f 21/21/37 32/32/38 54/54/39 23/23/40 
s 1
f 17/17/41 36/36/42 34/34/43 19/19/44 
s 1
f 23/23/45 54/54/46 52/63/47 1/62/48 
s 4
f 11/66/49 13/68/50 25/25/51 
s 4
f 9/60/52 11/66/53 25/25/54 
s 4
f 7/65/55 9/60/56 25/25/57 
s 4
f 23/74/58 1/61/59 25/25/60 
s 4
f 1/61/61 3/58/62 25/25/63 
s 4
f 5/64/64 7/65/65 25/25/66 
s 4
f 21/75/67 23/74/68 25/25/69 
s 4
f 3/58/70 5/64/71 25/25/72 
s 4
f 19/76/73 21/75/74 25/25/75 
s 4
f 17/73/76 19/76/77 25/25/78 
s 4
f 15/72/79 17/73/80 25/25/81 
s 4
f 13/68/82 15/72/83 25/25/84 
s 4
f 18/18/85 16/16/86 26/26/87 
s 4
f 16/16/88 14/14/89 26/26/90 
s 4
f 14/14/91 12/12/92 26/26/93 
s 4
f 12/12/94 10/10/95 26/26/96 
s 4
f 10/10/97 8/8/98 26/26/99 
s 4
f 2/56/100 24/55/101 26/26/102 
s 4
f 4/4/103 2/56/104 26/26/105 
s 4
f 8/8/106 6/6/107 26/26/108 
s 4
f 24/55/109 22/22/110 26/26/111 
s 4
f 6/6/112 4/4/113 26/26/114 
s 4
f 22/22/115 20/20/116 26/26/117 
s 4
f 20/20/118 18/18/119 26/26/120 
s 0
f 30/30/121 28/28/122 27/27/123 29/29/124 
s 2
f 31/31/125 22/86/126 24/24/127 53/53/128 
s 8
f 33/33/129 20/87/130 22/86/131 31/31/132 
s 1
f 35/35/133 18/77/134 20/87/135 33/33/136 
s 2
f 37/37/137 16/78/138 18/77/139 35/35/140 
s 1
f 39/39/141 14/79/142 16/78/143 37/37/144 
s 0
f 41/41/145 12/81/146 14/80/147 39/95/148 
s 2
f 43/43/149 10/82/150 12/81/151 41/41/152 
s 1
f 45/45/153 8/83/154 10/82/155 43/43/156 
s 2
f 47/47/157 6/85/158 8/83/159 45/45/160 
s 1
f 50/50/161 4/84/162 6/85/163 47/47/164 
s 2
f 51/59/165 2/57/166 4/84/167 50/50/168 
s 1
f 50/50/169 47/47/170 48/48/171 49/49/172 
s 2
f 47/47/173 45/45/174 46/46/175 48/48/176 
s 1
f 45/45/177 43/43/178 44/44/179 46/46/180 
s 2
f 43/43/181 41/41/182 42/42/183 44/44/184 
s 0
f 39/93/185 40/70/186 27/92/187 28/90/188 
s 1
f 39/39/189 37/37/190 38/38/191 40/71/192 
s 2
f 37/37/193 35/35/194 36/36/195 38/38/196 
s 1
f 35/35/197 33/33/198 34/34/199 36/36/200 
s 8
f 33/33/201 31/31/202 32/32/203 34/34/204 
s 2
f 31/31/205 53/53/206 54/54/207 32/32/208 
s 1
f 53/53/209 51/51/210 52/63/211 54/54/212 
s 2
f 51/59/213 50/50/214 49/49/215 52/52/216 
s 8
f 19/19/217 34/34/218 32/32/219 21/21/220 
s 0
f 40/70/221 42/69/222 29/88/223 27/92/224 
s 0
f 41/96/225 39/94/226 28/91/227 30/89/228 
s 0
f 42/69/229 41/96/230 30/89/231 29/88/232 
#end 64 faces

#ZOMPROPERTIES_03 {
#ZOMPROPERTIES_03 table {Mesh table {SymPlane table {Point vector3d 0 0 0 Normal vector3d 1 0 0 Threshold double 0.01 
#ZOMPROPERTIES_03 Enabled bool false EdgeID int -1 SymEdgeID int -1 UPos double 0.5 LocalMode bool false } RootGroup C
#ZOMPROPERTIES_03 SubMeshGroup {Children table {Tile_0_0 CSubMeshGroup {Children table {} BBoxUV box3d 0 0 0 0 0 0 BBo
#ZOMPROPERTIES_03 x3D box3d 0 0 0 0 0 0 AreaUV double 0 VisibleAreaUV double 0.692389 Area3D double 0 IsRoot bool fals
#ZOMPROPERTIES_03 e TopoStable table {Selected bool false Box box3d 0 1 0 1 0 0 U int 0 V int 0 NU int 0 NV int 0 Tili
#ZOMPROPERTIES_03 ng vector3d 1 1 1 TileRatioMode string "1:1" } IsTile bool true ID int 1 PolyIDs ints { 0 37 38 39 4
#ZOMPROPERTIES_03 0 41 53 7 8 10 60 9 11 58 57 56 55 54 1 2 3 4 5 6 51 43 42 44 45 46 47 59 48 49 50 12 23 22 21 20 18
#ZOMPROPERTIES_03  15 16 19 17 14 13 24 25 26 27 28 31 33 30 29 32 34 35 36 52 61 63 62 } } } BBoxUV box3d 0 0 0 0 0 0
#ZOMPROPERTIES_03  BBox3D box3d 0 0 0 0 0 0 AreaUV double 0 VisibleAreaUV double 0 Area3D double 0 IsRoot bool true To
#ZOMPROPERTIES_03 poStable table {Selected bool false Box box3d 0 1 0 1 0 0 U int 0 V int 0 NU int 1 NV int 1 Tiling v
#ZOMPROPERTIES_03 ector3d 1 1 1 TileRatioMode string "1:1" Pack table {Rotate table {Mode int 2 Min double 0 Max doubl
#ZOMPROPERTIES_03 e 180 Step double 0 } SpacingSize double 0.0078125 MarginSize double 0.00390625 Resolution int 200 S
#ZOMPROPERTIES_03 caling table {Mode int 0 } LayoutScalingMode int 2 MaxMutations int 1 } } IsTile bool false ID int 0
#ZOMPROPERTIES_03  PolyIDs ints { } } Maps table {Density table {PrimType string "Polygon" Size int 1 DefaultValue dou
#ZOMPROPERTIES_03 ble 1 ScaleType string "Log" MergeMode string "Average" MinValue double 0.1 MaxValue double 4 Data d
#ZOMPROPERTIES_03 oubles { r 64 1 } } Pin table {PrimType string "Vertex" Size int 1 DefaultValue double 0 ScaleType s
#ZOMPROPERTIES_03 tring "Normalized" MergeMode string "Max" MinValue double 0 MaxValue double 1 Data doubles { r 96 0 
#ZOMPROPERTIES_03 } } Protect table {PrimType string "Vertex" Size int 1 DefaultValue double 0 ScaleType string "Norma
#ZOMPROPERTIES_03 lized" MergeMode string "Average" MinValue double -1 MaxValue double 1 Data doubles { r 96 0 } } } }
#ZOMPROPERTIES_03  }
#ZOMPROPERTIES_03 }

#begin 0 fatal error vertex (that RizomUV cannot handle)
#end 0 fatal error vertex (that RizomUV cannot handle)

#begin 0 error vertex
#end 0 error vertex
